<?xml version="1.0" encoding="UTF-8"?>
<!DOCTYPE svg PUBLIC "-//W3C//DTD SVG 1.1//EN" "http://www.w3.org/Graphics/SVG/1.1/DTD/svg11.dtd">
<!-- Creator: CorelDRAW X7 -->
<svg xmlns="http://www.w3.org/2000/svg" xml:space="preserve" width="284.007mm" height="63.305mm" version="1.1" style="shape-rendering:geometricPrecision; text-rendering:geometricPrecision; image-rendering:optimizeQuality; fill-rule:evenodd; clip-rule:evenodd"
viewBox="0 0 28401 6331"
 xmlns:xlink="http://www.w3.org/1999/xlink">
 <defs>
  <style type="text/css">
   <![CDATA[
    .fil5 {fill:#2F4E85}
    .fil0 {fill:#59B8BC}
    .fil3 {fill:#FEFEFE;fill-rule:nonzero}
    .fil6 {fill:#434242;fill-rule:nonzero}
    .fil7 {fill:#08B6DE;fill-rule:nonzero}
    .fil4 {fill:#2F537E;fill-rule:nonzero}
    .fil1 {fill:#037CB0;fill-opacity:0.560784}
    .fil2 {fill:#322F70;fill-opacity:0.701961}
   ]]>
  </style>
 </defs>
 <g id="Layer_x0020_1">
  <metadata id="CorelCorpID_0Corel-Layer"/>
  <g id="_1861876814160">
   <g>
    <g>
     <rect class="fil0" x="2446" y="375" width="1998" height="5571"/>
     <polygon class="fil1" points="475,2030 4444,2030 4444,4107 475,4107 "/>
     <polygon class="fil2" points="1388,3048 7381,3048 7381,4993 1388,4993 "/>
    </g>
    <polygon class="fil3" points="3834,3423 3556,3423 3279,4284 3276,4284 3003,3423 2725,3423 3123,4648 3427,4648 "/>
    <polygon id="1" class="fil3" points="4362,4666 4632,4666 4632,3667 4999,3667 4999,3440 3995,3440 3995,3667 4362,3667 "/>
    <path id="2" class="fil3" d="M5189 4648l270 0 0 -439 283 0c305,0 424,-194 424,-393 0,-199 -119,-393 -424,-393l-553 0 0 1225zm270 -1016l209 0c125,0 237,28 237,184 0,156 -112,184 -237,184l-209 0 0 -368z"/>
    <path class="fil4" d="M4881 5955l107 0 0 -189 107 0c53,0 73,22 81,73 5,39 4,86 17,116l106 0c-19,-27 -18,-84 -20,-114 -3,-49 -18,-100 -71,-114l0 -1c54,-22 77,-65 77,-122 0,-73 -55,-134 -142,-134l-262 0 0 485zm107 -402l117 0c48,0 73,20 73,67 0,49 -25,70 -73,70l-117 0 0 -137z"/>
    <polygon id="1" class="fil4" points="5372,5955 5741,5955 5741,5866 5479,5866 5479,5747 5714,5747 5714,5664 5479,5664 5479,5560 5735,5560 5735,5470 5372,5470 "/>
    <path id="2" class="fil4" d="M5761 5955l108 0 38 -108 182 0 36 108 111 0 -181 -485 -110 0 -184 485zm237 -365l2 0 61 178 -126 0 63 -178z"/>
    <polygon id="3" class="fil4" points="6278,5955 6622,5955 6622,5866 6385,5866 6385,5470 6278,5470 "/>
    <polygon id="4" class="fil4" points="6713,5955 6820,5955 6820,5560 6966,5560 6966,5470 6568,5470 6568,5560 6713,5560 "/>
    <polygon id="5" class="fil4" points="7147,5955 7254,5955 7254,5769 7434,5470 7315,5470 7202,5662 7089,5470 6968,5470 7147,5766 "/>
   </g>
   <rect class="fil5" x="8527" y="643" width="66.15" height="5045.32"/>
   <g>
    <path class="fil6" d="M13952 2349l102 0 0 -483 183 0 0 -93 -468 0 0 93 183 0 0 483zm636 10c177,0 302,-136 302,-298l0 -2c0,-162 -124,-296 -301,-296 -177,0 -302,135 -302,298l0 1c0,162 124,297 301,297zm1 -93c-114,0 -196,-93 -196,-205l0 -2c0,-112 80,-203 195,-203 114,0 196,93 196,205l0 1c0,112 -80,204 -195,204zm549 87l87 0 142 -414 141 414 88 0 201 -580 -107 0 -137 427 -142 -429 -85 0 -142 429 -138 -427 -109 0 201 580zm762 -4l100 0 0 -410 318 410 84 0 0 -576 -99 0 0 398 -309 -398 -94 0 0 576zm852 8c121,0 206,-64 206,-172l0 -2c0,-95 -63,-139 -185,-168 -110,-27 -137,-47 -137,-91l0 -2c0,-38 35,-68 94,-68 53,0 105,21 157,59l54 -76c-59,-47 -125,-73 -209,-73 -115,0 -197,69 -197,167l0 2c0,106 69,143 192,172 107,25 130,47 130,88l0 2c0,43 -39,72 -102,72 -72,0 -127,-27 -182,-75l-61 73c69,62 152,92 240,92zm326 -8l101 0 0 -243 275 0 0 243 101 0 0 -576 -101 0 0 239 -275 0 0 -239 -101 0 0 576zm631 0l101 0 0 -576 -101 0 0 576zm255 0l102 0 0 -185 114 0c127,0 231,-68 231,-197l0 -2c0,-116 -85,-192 -219,-192l-228 0 0 576zm102 -277l0 -207 117 0c76,0 125,35 125,103l0 1c0,60 -48,103 -125,103l-117 0zm963 287c108,0 174,-40 234,-102l-65 -66c-50,46 -95,75 -166,75 -110,0 -190,-92 -190,-205l0 -2c0,-113 80,-203 190,-203 66,0 116,28 162,71l65 -75c-55,-52 -120,-89 -226,-89 -174,0 -297,134 -297,298l0 1c0,166 125,297 293,297zm599 0c177,0 302,-136 302,-298l0 -2c0,-162 -124,-296 -301,-296 -177,0 -302,135 -302,298l0 1c0,162 124,297 301,297zm1 -93c-114,0 -196,-93 -196,-205l0 -2c0,-112 80,-203 195,-203 114,0 196,93 196,205l0 1c0,112 -80,204 -195,204zm424 83l214 0c182,0 307,-126 307,-288l0 -2c0,-162 -125,-286 -307,-286l-214 0 0 576zm101 -92l0 -392 113 0c122,0 201,83 201,196l0 1c0,113 -79,195 -201,195l-113 0zm543 92l431 0 0 -91 -330 0 0 -154 289 0 0 -91 -289 0 0 -150 326 0 0 -90 -427 0 0 576zm551 0l100 0 0 -410 318 410 84 0 0 -576 -99 0 0 398 -309 -398 -94 0 0 576zm601 0l104 0 59 -139 273 0 58 139 107 0 -253 -581 -94 0 -254 581zm200 -229l99 -231 100 231 -199 0zm500 229l100 0 0 -412 180 270 3 0 182 -271 0 413 102 0 0 -576 -108 0 -176 272 -175 -272 -108 0 0 576zm715 0l431 0 0 -91 -330 0 0 -154 289 0 0 -91 -289 0 0 -150 326 0 0 -90 -427 0 0 576z"/>
    <path class="fil7" d="M9539 4534l942 0c429,0 653,-199 653,-470l0 -5c0,-233 -141,-350 -359,-413 181,-63 303,-187 303,-389l0 -5c0,-116 -44,-203 -105,-264 -99,-100 -247,-153 -483,-153l-951 0 0 1699zm553 -1031l0 -238 246 0c121,0 181,41 181,116l0 5c0,76 -57,117 -179,117l-248 0zm0 602l0 -253 287 0c124,0 184,51 184,124l0 5c0,72 -63,124 -187,124l-284 0zm1214 429l1367 0 0 -486 -798 0 0 -1213 -569 0 0 1699zm2311 34c507,0 845,-228 845,-808l0 -925 -578 0 0 942c0,206 -109,289 -262,289 -153,0 -262,-90 -262,-301l0 -930 -578 0 0 937c0,563 328,796 835,796zm1073 -34l1461 0 0 -466 -903 0 0 -184 830 0 0 -411 -830 0 0 -172 891 0 0 -466 -1449 0 0 1699zm2786 13l496 0 298 -845 298 845 496 0 556 -1712 -585 0 -241 816 -274 -821 -490 0 -274 821 -241 -816 -594 0 555 1712zm1947 -13l607 0 87 -228 595 0 90 228 616 0 -716 -1711 -563 0 -716 1711zm837 -631l156 -413 155 413 -311 0zm1493 631l568 0 0 -1218 500 0 0 -481 -1568 0 0 481 500 0 0 1218zm1245 0l1462 0 0 -466 -903 0 0 -184 830 0 0 -411 -830 0 0 -172 890 0 0 -466 -1449 0 0 1699zm1663 0l568 0 0 -486 122 0 320 486 648 0 -395 -578c205,-99 334,-272 334,-519l0 -5c0,-175 -53,-301 -155,-403 -119,-119 -311,-194 -611,-194l-831 0 0 1699zm568 -891l0 -332 247 0c132,0 217,54 217,162l0 5c0,105 -83,165 -219,165l-245 0zm1947 923c456,0 750,-219 750,-575l0 -5c0,-343 -291,-469 -726,-549 -180,-34 -226,-63 -226,-109l0 -5c0,-41 39,-71 124,-71 158,0 349,51 510,168l276 -384c-196,-154 -439,-232 -767,-232 -468,0 -720,250 -720,572l0 5c0,359 334,469 715,546 183,37 236,64 236,112l0 5c0,46 -44,73 -145,73 -199,0 -411,-58 -596,-199l-303 362c216,189 527,286 872,286z"/>
   </g>
  </g>
 </g>
</svg>
